{"accessors":[{"bufferView":2,"componentType":5126,"count":3131,"max":[49.70008850097656,7.115344047546387,5.273878574371338],"min":[-49.58909606933594,-7.02995491027832,-5.349315643310547],"type":"VEC3"},{"bufferView":2,"byteOffset":37572,"componentType":5126,"count":3131,"max":[0.9975704550743103,0.9999958872795105,0.9999924302101135],"min":[-0.9906266927719116,-0.9999818205833435,-0.9999946355819702],"type":"VEC3"},{"bufferView":1,"componentType":5126,"count":3131,"max":[1.4061650037765503,0.9793055057525635],"min":[0.0001623696880415082,0.03394043445587158],"type":"VEC2"},{"bufferView":0,"componentType":5125,"count":18078,"max":[3130],"min":[0],"type":"SCALAR"},{"bufferView":2,"byteOffset":75144,"componentType":5126,"count":14643,"max":[43.904449462890625,32.46186828613281,43.34962463378906],"min":[-43.23212814331055,-32.3974494934082,-43.26153564453125],"type":"VEC3"},{"bufferView":2,"byteOffset":250860,"componentType":5126,"count":14643,"max":[0.9958227872848511,0.9998940825462341,0.9998641610145569],"min":[-0.995823085308075,-0.9997526407241821,-0.9974650740623474],"type":"VEC3"},{"bufferView":1,"byteOffset":25048,"componentType":5126,"count":14643,"max":[1.4263697862625122,0.5409857630729675],"min":[0.000025328403353341855,0.0035554170608520508],"type":"VEC2"},{"bufferView":0,"byteOffset":72312,"componentType":5125,"count":87264,"max":[14642],"min":[0],"type":"SCALAR"},{"bufferView":2,"byteOffset":426576,"componentType":5126,"count":4789,"max":[52.78932189941406,37.029571533203125,50.08871841430664],"min":[-52.78932189941406,-37.029571533203125,-50.08871841430664],"type":"VEC3"},{"bufferView":2,"byteOffset":484044,"componentType":5126,"count":4789,"max":[0.9978594183921814,0.9999920725822449,0.9998641610145569],"min":[-0.9927027225494385,-0.9997918605804443,-0.9996131658554077],"type":"VEC3"},{"bufferView":1,"byteOffset":142192,"componentType":5126,"count":4789,"max":[1.2058212757110596,0.5745006799697876],"min":[0.0007397389854304492,0.00886678695678711],"type":"VEC2"},{"bufferView":0,"byteOffset":421368,"componentType":5125,"count":28188,"max":[4788],"min":[0],"type":"SCALAR"},{"bufferView":2,"byteOffset":541512,"componentType":5126,"count":2767,"max":[15.299776077270508,6.092045307159424,15.43274974822998],"min":[-15.300152778625488,-6.086302757263184,-15.437588691711426],"type":"VEC3"},{"bufferView":2,"byteOffset":574716,"componentType":5126,"count":2767,"max":[0.9050977826118469,0.9998916983604431,0.9786277413368225],"min":[-0.883283257484436,-0.9994218945503235,-0.9886679649353027],"type":"VEC3"},{"bufferView":0,"byteOffset":534120,"componentType":5125,"count":15966,"max":[2766],"min":[0],"type":"SCALAR"},{"bufferView":2,"byteOffset":607920,"componentType":5126,"count":2623,"max":[14.467155456542969,7.943911075592041,12.7296142578125],"min":[-14.457723617553711,-7.939702033996582,-12.72713565826416],"type":"VEC3"},{"bufferView":2,"byteOffset":639396,"componentType":5126,"count":2623,"max":[0.9350985884666443,0.998627781867981,0.9835909605026245],"min":[-0.837449312210083,-0.995910108089447,-0.9896954894065857],"type":"VEC3"},{"bufferView":0,"byteOffset":597984,"componentType":5125,"count":15318,"max":[2622],"min":[0],"type":"SCALAR"},{"bufferView":2,"byteOffset":670872,"componentType":5126,"count":2530,"max":[10.31850814819336,7.35868501663208,7.164156436920166],"min":[-10.329811096191406,-7.397584438323975,-7.1694016456604],"type":"VEC3"},{"bufferView":2,"byteOffset":701232,"componentType":5126,"count":2530,"max":[0.9522599577903748,0.9994277954101562,0.9889184832572937],"min":[-0.9607260227203369,-0.9999724626541138,-0.9994857311248779],"type":"VEC3"},{"bufferView":0,"byteOffset":659256,"componentType":5125,"count":14742,"max":[2529],"min":[0],"type":"SCALAR"}],"asset":{"extras":{"author":"Leo Isidro (https://sketchfab.com/leo.isidro3)","license":"CC-BY-4.0 (http://creativecommons.org/licenses/by/4.0/)","source":"https://sketchfab.com/3d-models/pizza-5b19b3bb03ed4a0c846f208b708bf24c","title":"PIZZA"},"generator":"Sketchfab-8.6.0","version":"2.0"},"bufferViews":[{"buffer":0,"byteLength":718224,"byteOffset":0,"name":"floatBufferViews","target":34963},{"buffer":0,"byteLength":180504,"byteOffset":718224,"byteStride":8,"name":"floatBufferViews","target":34962},{"buffer":0,"byteLength":731592,"byteOffset":898728,"byteStride":12,"name":"floatBufferViews","target":34962}],"buffers":[{"byteLength":1630320,"uri":"data:application/octet-stream;base64,"}],"extensionsRequired":["KHR_materials_pbrSpecularGlossiness"],"extensionsUsed":["KHR_materials_pbrSpecularGlossiness"],"materials":[{"doubleSided":true,"extensions":{"KHR_materials_pbrSpecularGlossiness":{"diffuseFactor":[1,0.6899102463888378,0.08756462137077992,1],"glossinessFactor":0.5377272634795218,"specularFactor":[0.2804545547022964,0.15300411544566264,0]}},"name":"Mat.3"},{"doubleSided":true,"extensions":{"KHR_materials_pbrSpecularGlossiness":{"diffuseFactor":[1,0.6068321564485184,0,1],"glossinessFactor":0.7013636271158854,"specularFactor":[1,0.12796030224583144,0]}},"name":"Mat.1"},{"doubleSided":true,"extensions":{"KHR_materials_pbrSpecularGlossiness":{"diffuseFactor":[0.9720470726719795,0.32278744327450903,0.011518620172932148,1],"glossinessFactor":0,"specularFactor":[0.30469697894472064,0.19383263177915627,0.045979123686425476]}},"name":"material"},{"doubleSided":true,"extensions":{"KHR_materials_pbrSpecularGlossiness":{"diffuseFactor":[1,0.05960276411550297,0,1],"glossinessFactor":0.8407575665098248,"specularFactor":[0.03803031227805398,0.010100454816172763,0]}},"name":"Mat.2"}],"meshes":[{"name":"CHEESE_Mat.3_0","primitives":[{"attributes":{"NORMAL":1,"POSITION":0,"TEXCOORD_0":2},"indices":3,"material":0,"mode":4}]},{"name":"CHEESE_2_Mat.1_0","primitives":[{"attributes":{"NORMAL":5,"POSITION":4,"TEXCOORD_0":6},"indices":7,"material":1,"mode":4}]},{"name":"BREAD_Mat_0","primitives":[{"attributes":{"NORMAL":9,"POSITION":8,"TEXCOORD_0":10},"indices":11,"material":2,"mode":4}]},{"name":"PEPPERONI_Mat.2_0","primitives":[{"attributes":{"NORMAL":13,"POSITION":12},"indices":14,"material":3,"mode":4}]},{"name":"PEPPERONI_2_Mat.2_0","primitives":[{"attributes":{"NORMAL":16,"POSITION":15},"indices":17,"material":3,"mode":4}]},{"name":"PEPPERONI_3_Mat.2_0","primitives":[{"attributes":{"NORMAL":19,"POSITION":18},"indices":20,"material":3,"mode":4}]}],"nodes":[{"children":[1],"name":"RootNode (gltf orientation matrix)","rotation":[-0.7071067811865475,0,0,0.7071067811865476]},{"children":[2],"name":"RootNode (model correction matrix)"},{"children":[3],"matrix":[1,0,0,0,0,0,1,0,0,-1,0,0,0,0,0,1],"name":"f9ab19da34b44b20a5f4d4f0c10ce874.fbx"},{"children":[4,6,8,10,12,14],"name":"RootNode"},{"children":[5],"matrix":[1,0,0,0,0,1,0,0,0,0,1,0,4.760128974914551,16.960386276245117,36.15693664550781,1],"name":"CHEESE"},{"mesh":0,"name":"CHEESE_Mat.3_0"},{"children":[7],"matrix":[1,0,0,0,0,1,0,0,0,0,1,0,4.540984630584717,-12.228854179382324,-11.565404891967773,1],"name":"CHEESE_2"},{"mesh":1,"name":"CHEESE_2_Mat.1_0"},{"children":[9],"matrix":[1,0,0,0,0,1,0,0,0,0,1,0,4.7423930168151855,-8.311079025268555,1.4011625051498413,1],"name":"BREAD"},{"mesh":2,"name":"BREAD_Mat_0"},{"children":[11],"matrix":[1,0,0,0,0,1,0,0,0,0,1,0,-18.11305046081543,13.958353996276855,11.387389183044434,1],"name":"PEPPERONI"},{"mesh":3,"name":"PEPPERONI_Mat.2_0"},{"children":[13],"matrix":[1,0,0,0,0,1,0,0,0,0,1,0,18.11305046081543,3.4884047508239746,-11.64269733428955,1],"name":"PEPPERONI_2"},{"mesh":4,"name":"PEPPERONI_2_Mat.2_0"},{"children":[15],"matrix":[1,0,0,0,0,1,0,0,0,0,1,0,-3.978456974029541,-16.960386276245117,-36.15693664550781,1],"name":"PEPPERONI_3"},{"mesh":5,"name":"PEPPERONI_3_Mat.2_0"}],"scene":0,"scenes":[{"name":"OSG_Scene","nodes":[0]}]}